<?xml version="1.0" encoding="UTF-8" standalone="no"?>
<svg width="1388px" height="748px" viewBox="0 0 1388 748" version="1.1" xmlns="http://www.w3.org/2000/svg" xmlns:xlink="http://www.w3.org/1999/xlink" xmlns:sketch="http://www.bohemiancoding.com/sketch/ns">
    <title>bg1</title>
    <description>Created with Sketch (http://www.bohemiancoding.com/sketch)</description>
    <defs></defs>
    <g id="Page-1" stroke="none" stroke-width="1" fill="none" fill-rule="evenodd" sketch:type="MSPage">
        <path d="M1046.91406,649.664062 C1086.11563,649.664062 1125.91418,648.621094 1164.81641,648.621094" id="Path" stroke="#979797" sketch:type="MSShapeGroup"></path>
        <path d="M1228.58984,158.929688 C1246.36679,158.929688 1270.5328,154.549312 1288.0625,158.929688 C1308.07047,163.929338 1334.25299,172.492188 1354.14062,172.492188" id="Path" stroke="#979797" sketch:type="MSShapeGroup"></path>
        <path d="M1136.83203,612.808594 C1136.83203,521.853497 1119.42819,524.288757 1205.69531,466.777344 C1231.1908,449.780354 1263.05168,434.669066 1292.29688,425.039063 C1311.56588,418.694068 1371.42262,406.094132 1376.8125,412.867188 C1386.06544,424.494653 1393.44179,493.37603 1394.54688,502.597656 C1402.4839,568.829681 1413.24656,632.61158 1340.64062,660.152344 C1308.6786,672.276128 1208.88779,695.106935 1175.78516,681.019531 C1165.02671,676.441084 1137.98206,655.154475 1135.78906,640.675781 C1134.08765,629.442621 1133.70312,616.867811 1133.70312,605.546875 L1133.70312,605.546875" id="Path" stroke="#979797" sketch:type="MSShapeGroup"></path>
        <path d="M686.714844,726.671875 C588.336558,726.671875 490.320919,720.783904 391.609375,725.628906 C279.08887,731.151686 327.143288,731.160594 225.363281,732.234375 C206.235439,732.436174 187.066844,733.449365 167.976562,732.234375 C148.732248,731.009582 129.721109,727.345975 110.589844,724.929688 C96.6794213,723.172795 82.731688,721.696923 68.8515625,719.714844 C41.2073578,715.767256 27.3548928,723.220478 34.7695312,700.976562 C42.6066936,677.465076 40.8502674,681.823505 53.5507812,650.894531 C58.7203922,638.305217 64.3163483,625.894532 69.5507812,613.332031 C80.0400038,588.158174 91.3159746,561.441562 98.765625,535.078125 C117.299329,469.489524 122.912294,398.708656 134.238281,331.617188 C139.06291,303.037652 155.800781,243.950285 155.800781,215.800781" id="Path" stroke="#979797" sketch:type="MSShapeGroup"></path>
        <path d="M1046.22656,38.453125 C786.945312,64.9765625 671.828125,36.4531251 591.484375,37.84375 C511.140625,39.234375 302.554651,93.6640625 302.554687,115.75 C302.554687,137.835938 97.1796485,74.8046879 219.429687,222.09375" id="Path-5" stroke="#979797" sketch:type="MSShapeGroup"></path>
        <path d="M278.573007,436.898974 L278.62487,436.799206 L278.687347,436.70372 L278.760105,436.613634 L278.842699,436.530041 L278.934566,436.454003 L279.035031,436.386531 L279.14331,436.32858 L279.258515,436.281035 L279.379659,436.244699 L279.505664,436.220282 L279.635369,436.208393 L279.767543,436.209528 L279.900888,436.224066 L280.03406,436.252255 L280.165672,436.29421 L280.294316,436.349907 L280.418569,436.41918 L280.537015,436.501717 L280.648252,436.597056 L280.750913,436.704594 L280.84368,436.82358 L280.925295,436.953123 L280.99458,437.092197 L281.050451,437.239644 L281.091928,437.394187 L281.118151,437.554438 L281.128395,437.718906 L281.122076,437.886013 L281.098765,438.054108 L281.058197,438.221478 L281.000278,438.386368 L280.925089,438.546996 L280.832895,438.701571 L280.724142,438.848311 L280.599464,438.985462 L280.459676,439.111317 L280.305777,439.224236 L280.138939,439.322662 L279.960504,439.405145 L279.771975,439.470353 L279.575004,439.517096 L279.371379,439.544339 L279.16301,439.551218 L278.951916,439.537053 L278.740201,439.501364 L278.530039,439.443878 L278.323655,439.36454 L278.123299,439.263521 L277.931226,439.14122 L277.749674,438.998268 L277.580835,438.83553 L277.42684,438.654103 L277.289726,438.455307 L277.171417,438.240683 L277.073699,438.011984 L276.9982,437.771157 L276.946364,437.520336 L276.919435,437.26182 L276.918434,436.998059 L276.944145,436.731628 L276.997099,436.465206 L277.077561,436.201555 L277.185517,435.943488 L277.32067,435.693845 L277.482431,435.455464 L277.669918,435.231149 L277.881956,435.023644 L278.117083,434.835601 L278.37355,434.669547 L278.649338,434.527859 L278.942167,434.412732 L279.249511,434.326151 L279.56862,434.269864 L279.896539,434.245358 L280.230134,434.253836 L280.56612,434.296194 L280.901086,434.373003 L281.231532,434.484497 L281.553901,434.630554 L281.864612,434.810694 L282.160099,435.024066 L282.436847,435.269453 L282.691429,435.545268 L282.920547,435.849561 L283.121068,436.180029 L283.290061,436.534031 L283.424835,436.908602 L283.522974,437.300474 L283.582367,437.706106 L283.601243,438.121705 L283.578198,438.543264 L283.51222,438.966594 L283.402711,439.387362 L283.249506,439.801133 L283.05289,440.203413 L282.813603,440.58969 L282.532851,440.955487 L282.212306,441.296403 L281.8541,441.608164 L281.46082,441.88667 L281.035495,442.128045 L280.581573,442.328681 L280.102904,442.485282 L279.603707,442.594914 L279.088542,442.655039 L278.562269,442.663557 L278.030007,442.61884 L277.497092,442.519764 L276.969025,442.365732 L276.451421,442.1567 L275.949953,441.893194 L275.470297,441.576316 L275.018074,441.207758 L274.598786,440.789795 L274.217759,440.325283 L273.880082,439.817644 L273.590546,439.270851 L273.353587,438.689399 L273.173229,438.078279 L273.053027,437.442934 L272.996023,436.789223 L273.004693,436.123372 L273.080905,435.451914 L273.225886,434.781638 L273.440186,434.119522 L273.723654,433.47267 L274.075415,432.848237 L274.493865,432.25336 L274.976658,431.695084 L275.520713,431.180283 L276.122222,430.715588 L276.776667,430.307307 L277.47885,429.961354 L278.22292,429.68317 L279.00242,429.477661 L279.810332,429.349123 L280.639135,429.301183 L281.480865,429.336745 L282.327191,429.45793 L283.169481,429.666038 L283.99889,429.961507 L284.806442,430.343882 L285.583119,430.811795 L286.319955,431.362952 L287.008129,431.994127 L287.639058,432.701169 L288.204501,433.479017 L288.696645,434.321726 L289.108206,435.222502 L289.432515,436.173747 L289.663611,437.167112 L289.796317,438.193564 L289.826324,439.243457 L289.750257,440.306614 L289.565739,441.372419 L289.271445,442.42991 L288.867148,443.467884 L288.353756,444.475007 L287.73333,445.439925 L287.009104,446.351383 L286.185484,447.198346 L285.268035,447.970114 L284.263463,448.65645 L283.179573,449.247695 L282.025227,449.734887 L280.810281,450.109875 L279.545512,450.365426 L278.242536,450.495331 L276.913709,450.494493 L275.572027,450.359022 L274.231002,450.086302 L272.904548,449.675066 L271.606838,449.125439 L270.352174,448.438986 L269.154838,447.618735 L268.028941,446.669192 L266.98828,445.596335 L266.046177,444.407598 L265.215332,443.111838 L264.507672,441.719285 L263.934202,440.241476 L263.504866,438.691175 L263.228413,437.08228 L263.112268,435.429708 L263.162417,433.749275 L263.383302,432.057558 L263.777729,430.371743 L264.34679,428.709471 L265.089801,427.088663 L266.004255,425.527346 L267.085794,424.043469 L268.328201,422.654714 L269.723404,421.378304 L271.26151,420.230814 L272.93085,419.227977 L274.718046,418.384498 L276.608102,417.713868 L278.584507,417.228192 L280.629365,416.93802 L282.723535,416.85219 L284.846795,416.977688 L286.978019,417.319519 L289.095367,417.880598 L291.176491,418.661653 L293.198752,419.661158 L295.139446,420.875275 L296.976036,422.297831 L298.68639,423.92031 L300.249025,425.731868 L301.643345,427.719382 L302.849886,429.867514 L303.850546,432.158802 L304.628817,434.573783 L305.170001,437.091131 L305.461418,439.687824 L305.492598,442.339328 L305.255452,445.019814 L304.744432,447.70238 L303.95666,450.359297 L302.892039,452.962279 L301.553337,455.482752 L299.946244,457.892146 L298.0794,460.162186 L295.964393,462.2652 L293.615729,464.17442 L291.050765,465.864286 L288.289618,467.310747 L285.355037,468.491559 L282.272247,469.386563 L279.06876,469.97796 L275.77416,470.250565 L272.419856,470.192044 L269.038814,469.793122 L265.66526,469.047775 L262.334365,467.953389 L259.081905,466.510885 L255.943913,464.724821 L252.95631,462.603448 L250.154532,460.158735 L247.573146,457.40636 L245.245469,454.365656 L243.203182,451.059518 L241.475956,447.514275 L240.091085,443.759517 L239.073128,439.827889 L238.443578,435.75484 L238.220545,431.578344 L238.418467,427.338578 L239.047856,423.077574 L240.115065,418.838838 L241.6221,414.666942 L243.566475,410.607098 L245.941095,406.704704 L248.7342,403.004883 L251.929342,399.552004 L255.505418,396.389205 L259.43675,393.557902 L263.693212,391.097316 L268.240413,389.043997 L273.039924,387.431367 L278.049554,386.289279 L283.22368,385.643602 L288.513609,385.515838 L293.868,385.922762 L299.233309,386.876111 L304.554285,388.382315 L309.774484,390.442264 L314.836824,393.051143 L319.684155,396.198304 L324.259849,399.867206 L328.508401,404.03541 L332.37604,408.674636" id="Spiral-1" stroke="#979797" sketch:type="MSShapeGroup"></path>
        <path d="M1133.41406,194.828125 C1167.33232,194.828125 1194.82812,167.332324 1194.82812,133.414062 C1194.82812,99.495801 1167.33232,72 1133.41406,72 C1099.4958,72 1072,99.495801 1072,133.414062 C1072,167.332324 1099.4958,194.828125 1133.41406,194.828125 L1133.41406,194.828125 Z" id="Stroke-1" stroke="#FFFFFF" sketch:type="MSShapeGroup"></path>
        <path d="M1071,127 L1194.53387,127" id="Stroke-3" stroke="#FFFFFF" sketch:type="MSShapeGroup"></path>
        <path d="M1166,96 L1166,156.708314" id="Stroke-6" stroke="#FFFFFF" sketch:type="MSShapeGroup"></path>
        <path d="M1097,109 L1097,169.708314" id="Stroke-7" stroke="#FFFFFF" sketch:type="MSShapeGroup"></path>
        <path d="M1136.4924,135.984793 C1143.94385,135.984793 1149.98479,129.943845 1149.98479,122.492397 C1149.98479,115.040948 1143.94385,109 1136.4924,109 C1129.04095,109 1123,115.040948 1123,122.492397 C1123,129.943845 1129.04095,135.984793 1136.4924,135.984793 L1136.4924,135.984793 Z" id="Stroke-8" stroke="#FFFFFF" sketch:type="MSShapeGroup"></path>
    </g>
</svg>