<?xml version="1.0" encoding="UTF-8" standalone="no"?>
<svg width="167px" height="192px" viewBox="0 0 167 192" version="1.1" xmlns="http://www.w3.org/2000/svg" xmlns:xlink="http://www.w3.org/1999/xlink" xmlns:sketch="http://www.bohemiancoding.com/sketch/ns">
    <title>hexagono_productos</title>
    <description>Created with Sketch (http://www.bohemiancoding.com/sketch)</description>
    <defs></defs>
    <g id="Page-1" stroke="none" stroke-width="1" fill="none" fill-rule="evenodd" sketch:type="MSPage">
        <path d="M83.434,1.866 L1.488,49.177 L1.488,143.8 L83.434,191.111 L165.379,143.8 L165.379,49.177 L83.434,1.866 Z" id="Fill-5" fill="#FF4C00" sketch:type="MSShapeGroup"></path>
        <path d="M56.15,58.205 C56.15,58.205 54.638,79.448 54.638,97.519 C54.638,115.59 56.15,135.378 56.15,135.378 C56.15,135.378 56.764,149.267 77.315,149.267 L90.166,149.267 C90.166,149.267 110.717,149.267 110.717,135.378 C110.717,135.378 112.039,120.196 112.039,98.228 C112.039,76.259 110.717,58.205 110.717,58.205 C110.717,58.205 112.748,44.031 87.236,44.031 L80.245,44.031 C80.245,44.031 56.15,42.952 56.15,58.205 Z" id="Fill-6" fill="#EB4600" sketch:type="MSShapeGroup"></path>
        <path d="M83.434,62.102 C96.936,62.102 107.883,58.295 107.883,53.598 C107.883,48.902 96.936,45.094 83.434,45.094 C69.931,45.094 58.985,48.902 58.985,53.598 C58.985,58.295 69.931,62.102 83.434,62.102" id="Fill-7" fill="#FF4C00" sketch:type="MSShapeGroup"></path>
        <path d="M65.091,55.016 C66.95,55.016 68.457,54.222 68.457,53.244 C68.457,52.265 66.95,51.472 65.091,51.472 C63.232,51.472 61.724,52.265 61.724,53.244 C61.724,54.222 63.232,55.016 65.091,55.016" id="Fill-8" fill="#EB4600" sketch:type="MSShapeGroup"></path>
        <path d="M101.587,54.307 C103.446,54.307 104.953,53.514 104.953,52.535 C104.953,51.557 103.446,50.764 101.587,50.764 C99.728,50.764 98.22,51.557 98.22,52.535 C98.22,53.514 99.728,54.307 101.587,54.307" id="Fill-9" fill="#EB4600" sketch:type="MSShapeGroup"></path>
    </g>
</svg>