<?xml version="1.0" encoding="UTF-8" standalone="no"?>
<svg width="37px" height="45px" viewBox="0 0 37 45" version="1.1" xmlns="http://www.w3.org/2000/svg" xmlns:xlink="http://www.w3.org/1999/xlink" xmlns:sketch="http://www.bohemiancoding.com/sketch/ns">
    <title>logo</title>
    <description>Created with Sketch (http://www.bohemiancoding.com/sketch)</description>
    <defs></defs>
    <g id="Page-1" stroke="none" stroke-width="1" fill="none" fill-rule="evenodd" sketch:type="MSPage">
        <ellipse id="Oval-1" fill="#000000" sketch:type="MSShapeGroup" transform="translate(23.000000, 21.500000) rotate(19.000000) translate(-23.000000, -21.500000) " cx="23" cy="21.5" rx="1" ry="1.5"></ellipse>
        <ellipse id="Oval-1-copy" fill="#000000" sketch:type="MSShapeGroup" transform="translate(14.000000, 21.500000) rotate(19.000000) translate(-14.000000, -21.500000) " cx="14" cy="21.5" rx="1" ry="1.5"></ellipse>
        <path d="M18.2596498,9.04645521 C18.2596498,9.04645521 22.8197893,8.75610992 25.9548853,9.6271464 C29.0899812,10.4981832 32.7950941,11.6595656 34.2201382,15.7244039 C35.6451818,19.7892422 34.7901556,26.7575365 34.2201382,28.2092645 C33.6501207,29.6609925 31.6550597,33.1451395 26.5249027,35.75825 C21.3947458,38.3713603 14.2695278,36.0485956 14.2695278,36.0485956 C14.2695278,36.0485956 9.99439709,34.3065219 7.14430976,31.6934116 C4.29422256,29.0803013 2.58417019,27.0478821 2.29916152,25.8864997 C2.0141528,24.7251173 1.44413539,21.5313158 3.4391964,18.3375143 C5.43425744,15.1437127 7.99933571,12.8209477 10.8494231,11.0788744 C13.6995103,9.3368008 18.2596498,9.04645521 18.2596498,9.04645521 Z" id="Path-1" stroke="#000000" stroke-width="2" sketch:type="MSShapeGroup"></path>
        <text id="nitu" sketch:type="MSTextLayer" font-family="Alte Haas Grotesk" font-size="5.6" font-weight="bold" fill="#000000">
            <tspan x="13" y="5">nitu</tspan>
        </text>
        <text id="niyo" sketch:type="MSTextLayer" font-family="Alte Haas Grotesk" font-size="5.6" font-weight="bold" fill="#000000">
            <tspan x="13" y="43">niyo</tspan>
        </text>
    </g>
</svg>