<?xml version="1.0" encoding="UTF-8" standalone="no"?>
<svg width="171px" height="32px" viewBox="0 0 171 32" version="1.1" xmlns="http://www.w3.org/2000/svg" xmlns:xlink="http://www.w3.org/1999/xlink" xmlns:sketch="http://www.bohemiancoding.com/sketch/ns">
    <title>logo</title>
    <description>Created with Sketch (http://www.bohemiancoding.com/sketch)</description>
    <defs></defs>
    <g id="Page-1" stroke="none" stroke-width="1" fill="none" fill-rule="evenodd" sketch:type="MSPage">
        <g id="quimica" sketch:type="MSLayerGroup" transform="translate(83.000000, 11.000000)" fill="#1A1918">
            <path d="M9.808,9.7025 L5.811,9.7025 C5.653,9.7545 5.482,9.8075 5.311,9.8335 C5.14,9.8735 4.97,9.8995 4.799,9.8995 C1.656,9.8995 0.236,7.7565 0.236,4.9555 C0.236,2.1555 1.656,0.0125 4.799,0.0125 C7.941,0.0125 9.361,2.1555 9.361,4.9555 C9.374,5.9945 8.664,7.6775 7.941,8.3085 L7.968,8.3355 C8.165,8.2695 8.651,8.2425 9.138,8.2295 L9.808,8.2295 L9.808,9.7025 Z M7.192,4.9555 C7.192,3.3255 6.81,1.4845 4.799,1.4845 C2.787,1.4845 2.406,3.3255 2.406,4.9555 C2.406,6.5865 2.787,8.4265 4.799,8.4265 C6.81,8.4265 7.192,6.5865 7.192,4.9555 L7.192,4.9555 Z" id="Fill-25" sketch:type="MSShapeGroup"></path>
            <path d="M19.1415,0.2094 L19.1415,6.1524 C19.1415,8.6774 17.3275,9.8994 15.0265,9.8994 C12.7255,9.8994 10.9105,8.6774 10.9105,6.1524 L10.9105,0.2094 L12.9485,0.2094 L12.9485,5.3634 C12.9485,6.9674 13.0275,8.4274 15.0265,8.4274 C17.0245,8.4274 17.1035,6.9674 17.1035,5.3634 L17.1035,0.2094 L19.1415,0.2094 Z" id="Fill-27" sketch:type="MSShapeGroup"></path>
            <path d="M22.992,9.703 L20.954,9.703 L20.954,0.21 L22.992,0.21 L22.992,9.703 Z" id="Fill-30" sketch:type="MSShapeGroup"></path>
            <path d="M30.7225,9.7025 L29.0265,9.7025 L26.5145,1.5505 L26.4885,1.5765 L26.4885,9.7025 L24.5825,9.7025 L24.5825,0.2095 L27.9225,0.2095 L29.9075,7.1125 L32.0895,0.2095 L35.3115,0.2095 L35.3115,9.7025 L33.4045,9.7025 L33.4045,1.5765 L33.3785,1.5505 L30.7225,9.7025 Z" id="Fill-31" sketch:type="MSShapeGroup"></path>
            <path d="M39.056,9.703 L37.018,9.703 L37.018,0.21 L39.056,0.21 L39.056,9.703 Z" id="Fill-32" sketch:type="MSShapeGroup"></path>
            <path d="M46.1029,3.2862 C46.1159,2.2862 45.5109,1.4842 44.2889,1.4842 C42.8419,1.4842 42.4739,3.6282 42.4739,4.9562 C42.4739,6.2842 42.8419,8.4272 44.2889,8.4272 C45.5109,8.4272 46.1159,7.6252 46.1029,6.6262 L48.2729,6.6262 C48.1809,9.0052 46.4709,9.8992 44.2889,9.8992 C41.5409,9.8992 40.3039,7.7302 40.3039,4.9562 C40.3039,2.1812 41.5409,0.0122 44.2889,0.0122 C46.4709,0.0122 48.1809,0.9062 48.2729,3.2862 L46.1029,3.2862 Z" id="Fill-33" sketch:type="MSShapeGroup"></path>
            <path d="M48.7966,9.7025 L52.2286,0.2095 L54.6476,0.2095 L57.9476,9.7025 L55.8966,9.7025 L55.2136,7.6905 L51.4526,7.6905 L50.7426,9.7025 L48.7966,9.7025 Z M54.7006,6.1125 L53.3986,2.0635 L53.3726,2.0635 L51.9786,6.1125 L54.7006,6.1125 Z" id="Fill-35" sketch:type="MSShapeGroup"></path>
            <path d="M59.4579,7.9538 L61.4039,7.9538 L59.8389,11.1748 L58.4849,11.1748 L59.4579,7.9538 Z" id="Fill-36" sketch:type="MSShapeGroup"></path>
            <path d="M71.395,2.918 C71.316,1.958 70.803,1.485 69.817,1.485 C69.068,1.485 68.305,1.879 68.305,2.708 C68.305,3.733 69.226,3.852 70.041,4.049 C71.487,4.417 73.617,4.824 73.617,6.731 C73.617,9.085 71.566,9.9 69.528,9.9 C67.359,9.9 65.82,9.058 65.886,6.665 L67.963,6.665 C67.885,7.717 68.489,8.427 69.554,8.427 C70.37,8.427 71.448,8.177 71.448,7.165 C71.448,6.047 70.093,5.968 69.278,5.758 C67.95,5.429 66.136,4.824 66.136,3.141 C66.136,0.972 68.134,0.012 70.08,0.012 C71.921,0.012 73.354,1.012 73.354,2.918 L71.395,2.918 Z" id="Fill-37" sketch:type="MSShapeGroup"></path>
            <path d="M75.193,7.954 L76.863,7.954 L76.863,9.703 L75.193,9.703 L75.193,7.954 Z" id="Fill-39" sketch:type="MSShapeGroup"></path>
            <path d="M78.7558,9.7025 L78.7558,0.2095 L80.7938,0.2095 L80.7938,8.1245 L84.9088,8.1245 L84.9088,9.7025 L78.7558,9.7025 Z" id="Fill-40" sketch:type="MSShapeGroup"></path>
            <path d="M86.157,7.954 L87.827,7.954 L87.827,9.703 L86.157,9.703 L86.157,7.954 Z" id="Fill-41" sketch:type="MSShapeGroup"></path>
        </g>
        <path d="M13.993,31.01 L1,23.506 L1,8.504 L13.993,1 L26.989,8.504 L26.989,23.506 L13.993,31.01 Z" id="exagon1" stroke="#000000" fill="#FF4C00" sketch:type="MSShapeGroup"></path>
        <path d="M39.992,31.01 L27,23.506 L27,8.504 L39.992,1 L52.987,8.504 L52.987,23.506 L39.992,31.01 Z" id="exagon2" stroke="#000000" fill="#FF4C00" sketch:type="MSShapeGroup"></path>
        <path d="M65.991,31.01 L53,23.506 L53,8.504 L65.991,1 L78.987,8.504 L78.987,23.506 L65.991,31.01 Z" id="exagon3" stroke="#000000" fill="#FF4C00" sketch:type="MSShapeGroup"></path>
        <path d="M10,22.22 L13.45,22.22 L13.45,17.103 L18.175,17.103 L18.175,14.773 L13.45,14.773 L13.45,12.326 L18.483,12.326 L18.483,10 L10,10 L10,22.22 Z" id="f" fill="#1A1918" sketch:type="MSShapeGroup"></path>
        <path d="M35,22.22 L38.449,22.22 L38.449,15.814 L42.06,22.22 L45.904,22.22 L41.592,15.269 L45.432,10 L41.715,10 L38.491,14.825 L38.449,14.825 L38.449,10 L35,10 L35,22.22 Z" id="k" fill="#1A1918" sketch:type="MSShapeGroup"></path>
        <path d="M64.449,12.018 L65.497,12.018 C66.875,12.018 67.283,12.636 67.283,13.559 C67.283,14.278 66.915,15.151 65.519,15.151 L64.449,15.151 L64.449,12.018 Z M61,22.221 L64.449,22.221 L64.449,17.171 L65.765,17.171 C66.854,17.171 67.203,17.614 67.203,19.737 C67.203,21.124 67.306,21.807 67.573,22.221 L71.288,22.221 L71.288,22.064 C70.797,21.893 70.694,21.655 70.631,19.24 C70.59,17.6 70.466,16.452 68.27,16.194 L68.27,16.161 C69.874,15.836 70.734,14.963 70.734,13.183 C70.734,11.506 69.728,10 66.791,10 L61,10 L61,22.221 Z" id="r" fill="#1A1918" sketch:type="MSShapeGroup"></path>
    </g>
</svg>